# xmcd
#
# Track frame offsets:
#	182
#	11800
#	25707
#	37287
#	48915
#	60707
#	74277
#	88972
#	103000
#	116760
#
# Disc length: 1714 seconds
#
# Revision: 2
# Processed by: cddbd v1.5.2PL0 Copyright (c) Steve Scherf et al.
# Submitted via: audiograbber 1.83.01
#
DISCID=8b06b00a
DTITLE=Solomon Burke - Got To Get You Off My Mind
DYEAR=1900
DGENRE=Oldies
TTITLE0=Got To Get You Off My Mind
TTITLE1=I'm Hanging Up My Heart For You
TTITLE2=Down In The Valley
TTITLE3=Cry To Me
TTITLE4=If You Need Me
TTITLE5=Someone Is Watching
TTITLE6=Goodbye Baby (Baby Goodbye)
TTITLE7=Take Me (Just As I Am)
TTITLE8=You're Good For Me
TTITLE9=Tonight's The Night
EXTD=
EXTT0=
EXTT1=
EXTT2=
EXTT3=
EXTT4=
EXTT5=
EXTT6=
EXTT7=
EXTT8=
EXTT9=
PLAYORDER=
